<svg width="120" height="120" viewBox="0 0 120 120" fill="none" xmlns="http://www.w3.org/2000/svg">
  <rect width="120" height="120" rx="24" fill="#14B8A6"/>
  <path d="M40 45C40 38.3726 45.3726 33 52 33H68C74.6274 33 80 38.3726 80 45V60C80 66.6274 74.6274 72 68 72H52C45.3726 72 40 66.6274 40 60V45Z" fill="white"/>
  <circle cx="55" cy="50" r="3" fill="#14B8A6"/>
  <circle cx="65" cy="50" r="3" fill="#14B8A6"/>
  <path d="M55 60C55 60 58 63 60 63C62 63 65 60 65 60" stroke="#14B8A6" stroke-width="2" stroke-linecap="round"/>
  <path d="M30 75L35 70H50C53.3137 70 56 72.6863 56 76V80C56 83.3137 53.3137 86 50 86H35C31.6863 86 29 83.3137 29 80V76C29 75.4477 29.4477 75 30 75Z" fill="white" opacity="0.9"/>
  <circle cx="72" cy="82" r="4" fill="#FF6B6B"/>
  <circle cx="72" cy="82" r="2" fill="white"/>
</svg>
