<svg width="120" height="120" viewBox="0 0 120 120" fill="none" xmlns="http://www.w3.org/2000/svg">
  <rect width="120" height="120" rx="24" fill="#2563EB"/>
  
  <g transform="translate(25, 20)">
    <path d="M35 10 L60 60 L10 60 Z" fill="none" stroke="white" stroke-width="5" stroke-linejoin="round"/>
    
    <path d="M35 8 L28 20 L25 28 L23 32 L21 35 C21 35 19 38 17 40 L14 42 L11 43 L8 44 L5 44" 
          fill="white" stroke="none"/>
    
    <path d="M10 60 L15 48 L18 40 L20 36 L22 33 C22 33 24 30 26 28 L29 26 L32 24 L35 23 L38 22" 
          fill="white" stroke="none"/>
    
    <path d="M60 60 L55 48 L52 40 L50 36 L48 33 C48 33 46 30 44 28 L41 26 L38 24 L35 23 L32 22" 
          fill="white" stroke="none"/>
  </g>
</svg>
