<svg width="120" height="120" viewBox="0 0 120 120" fill="none" xmlns="http://www.w3.org/2000/svg">
  <rect width="120" height="120" rx="24" fill="#2563EB"/>
  
  <g transform="translate(15, 15)">
    <path d="M45 20 L75 75 L15 75 Z" fill="none" stroke="#E5E7EB" stroke-width="6" stroke-linejoin="round"/>
    
    <path d="M45 8 C50 8 54 10 57 13 L60 16 L62 19 C64 21 66 24 67 26 L68 28 L69 31 L69 33 C69 35 69 37 68 38 L67 40 L65 42 C64 43 62 44 61 45 L58 46 C56 47 54 47 52 47 L49 46 L47 45 C46 44 44 43 43 41 L41 39 L40 36 C39 34 38 32 38 30 L38 27 L39 24 C40 22 41 20 42 18 L44 16 C45 14 46 13 48 12 L51 10 C53 9 55 8 58 8 Z" 
          fill="#333333" stroke="none"/>
    
    <path d="M15 75 C15 70 16 66 18 62 L20 58 L23 55 C25 53 28 51 30 50 L33 49 L36 48 L39 48 C41 48 43 49 45 50 L48 52 L50 54 C51 55 52 57 53 59 L54 61 L55 64 L55 67 C55 69 54 71 53 72 L51 74 L49 76 C48 77 46 78 45 79 L42 80 C40 81 38 81 36 81 L33 80 L31 79 C30 78 28 77 27 75 L25 73 L24 70 C23 68 22 66 22 64 L22 61 L23 58 C24 56 25 54 26 52 L28 50 C29 48 30 47 32 46 L35 44 C37 43 39 42 42 42 Z" 
          fill="#333333" stroke="none"/>
    
    <path d="M75 75 C75 70 74 66 72 62 L70 58 L67 55 C65 53 62 51 60 50 L57 49 L54 48 L51 48 C49 48 47 49 45 50 L42 52 L40 54 C39 55 38 57 37 59 L36 61 L35 64 L35 67 C35 69 36 71 37 72 L39 74 L41 76 C42 77 44 78 45 79 L48 80 C50 81 52 81 54 81 L57 80 L59 79 C60 78 62 77 63 75 L65 73 L66 70 C67 68 68 66 68 64 L68 61 L67 58 C66 56 65 54 64 52 L62 50 C61 48 60 47 58 46 L55 44 C53 43 51 42 48 42 Z" 
          fill="#1E9DD8" stroke="none"/>
  </g>
</svg>
