<svg width="512" height="512" viewBox="0 0 512 512" fill="none" xmlns="http://www.w3.org/2000/svg">
  <!-- Верхняя рука (тёмная, наклонная вправо) -->
  <path d="M 340 40 Q 380 40 405 65 Q 430 90 430 130 L 430 160 Q 430 168 427 175 L 410 210 Q 407 216 402 220 L 385 235 Q 378 240 370 242 L 350 247 Q 343 248 336 246 L 316 240 Q 309 237 303 232 L 286 217 Q 281 213 278 207 L 261 172 Q 258 165 258 157 L 258 127 Q 258 87 283 62 Q 308 37 340 40 Z" fill="#2F3337"/>
  
  <!-- Верхняя рука - пальцы -->
  <path d="M 315 135 L 312 255 Q 312 262 309 268 L 297 285 Q 293 290 288 293 L 272 303 Q 266 306 259 307 Q 251 308 244 305 L 228 297 Q 222 294 217 289 L 205 272 Q 201 266 201 259 L 204 139 Q 204 132 207 126 L 219 109 Q 223 104 228 101 L 244 91 Q 250 88 257 87 Q 265 86 272 89 L 288 97 Q 294 100 299 105 L 311 122 Q 315 128 315 135 Z" fill="#2F3337"/>
  
  <path d="M 380 145 L 377 265 Q 377 272 374 278 L 362 295 Q 358 300 353 303 L 337 313 Q 331 316 324 317 Q 316 318 309 315 L 293 307 Q 287 304 282 299 L 270 282 Q 266 276 266 269 L 269 149 Q 269 142 272 136 L 284 119 Q 288 114 293 111 L 309 101 Q 315 98 322 97 Q 330 96 337 99 L 353 107 Q 359 110 364 115 L 376 132 Q 380 138 380 145 Z" fill="#2F3337"/>
  
  <path d="M 445 155 L 442 275 Q 442 282 439 288 L 427 305 Q 423 310 418 313 L 402 323 Q 396 326 389 327 Q 381 328 374 325 L 358 317 Q 352 314 347 309 L 335 292 Q 331 286 331 279 L 334 159 Q 334 152 337 146 L 349 129 Q 353 124 358 121 L 374 111 Q 380 108 387 107 Q 395 106 402 109 L 418 117 Q 424 120 429 125 L 441 142 Q 445 148 445 155 Z" fill="#2F3337"/>
  
  <!-- Левая рука (тёмная) -->
  <path d="M 40 340 Q 40 300 65 275 Q 90 250 130 250 L 160 250 Q 168 250 175 253 L 210 270 Q 216 273 220 278 L 235 295 Q 240 302 242 310 L 247 330 Q 248 337 246 344 L 240 364 Q 237 371 232 377 L 217 394 Q 213 399 207 402 L 172 419 Q 165 422 157 422 L 127 422 Q 87 422 62 397 Q 37 372 40 340 Z" fill="#2F3337"/>
  
  <!-- Левая рука - пальцы -->
  <path d="M 135 305 L 255 302 Q 262 302 268 305 L 285 317 Q 290 321 293 326 L 303 342 Q 306 348 307 355 Q 308 363 305 370 L 297 386 Q 294 392 289 397 L 272 409 Q 266 413 259 413 L 139 416 Q 132 416 126 413 L 109 401 Q 104 397 101 392 L 91 376 Q 88 370 87 363 Q 86 355 89 348 L 97 332 Q 100 326 105 321 L 122 309 Q 128 305 135 305 Z" fill="#2F3337"/>
  
  <path d="M 145 370 L 265 367 Q 272 367 278 370 L 295 382 Q 300 386 303 391 L 313 407 Q 316 413 317 420 Q 318 428 315 435 L 307 451 Q 304 457 299 462 L 282 474 Q 276 478 269 478 L 149 481 Q 142 481 136 478 L 119 466 Q 114 462 111 457 L 101 441 Q 98 435 97 428 Q 96 420 99 413 L 107 397 Q 110 391 115 386 L 132 374 Q 138 370 145 370 Z" fill="#2F3337"/>
  
  <!-- Правая рука (голубая) -->
  <path d="M 472 340 Q 472 300 447 275 Q 422 250 382 250 L 352 250 Q 344 250 337 253 L 302 270 Q 296 273 292 278 L 277 295 Q 272 302 270 310 L 265 330 Q 264 337 266 344 L 272 364 Q 275 371 280 377 L 295 394 Q 299 399 305 402 L 340 419 Q 347 422 355 422 L 385 422 Q 425 422 450 397 Q 475 372 472 340 Z" fill="#1DA1F2"/>
  
  <!-- Правая рука - пальцы -->
  <path d="M 377 305 L 257 302 Q 250 302 244 305 L 227 317 Q 222 321 219 326 L 209 342 Q 206 348 205 355 Q 204 363 207 370 L 215 386 Q 218 392 223 397 L 240 409 Q 246 413 253 413 L 373 416 Q 380 416 386 413 L 403 401 Q 408 397 411 392 L 421 376 Q 424 370 425 363 Q 426 355 423 348 L 415 332 Q 412 326 407 321 L 390 309 Q 384 305 377 305 Z" fill="#1DA1F2"/>
  
  <path d="M 367 370 L 247 367 Q 240 367 234 370 L 217 382 Q 212 386 209 391 L 199 407 Q 196 413 195 420 Q 194 428 197 435 L 205 451 Q 208 457 213 462 L 230 474 Q 236 478 243 478 L 363 481 Q 370 481 376 478 L 393 466 Q 398 462 401 457 L 411 441 Q 414 435 415 428 Q 416 420 413 413 L 405 397 Q 402 391 397 386 L 380 374 Q 374 370 367 370 Z" fill="#1DA1F2"/>
  
  <!-- Центральный треугольник -->
  <path d="M 256 170 L 400 430 L 112 430 Z" fill="white" stroke="#D0D0D0" stroke-width="8"/>
</svg>