<svg width="120" height="120" viewBox="0 0 120 120" fill="none" xmlns="http://www.w3.org/2000/svg">
  <rect width="120" height="120" rx="24" fill="white"/>
  
  <g transform="translate(20, 25) scale(0.5)">
    <path d="M100 20 L140 90 L60 90 Z" fill="none" stroke="#2B2B2B" stroke-width="16" stroke-linejoin="round"/>
    
    <path d="M100 15 C100 15 85 25 75 45 L70 55 L65 60 L62 62 C62 62 58 65 55 65 L50 65 L45 63 L42 60 L40 55 C40 55 35 48 32 42 L30 35" 
          fill="#2B2B2B" stroke="none">
      <animate attributeName="d" 
               values="M100 15 C100 15 85 25 75 45 L70 55 L65 60 L62 62 C62 62 58 65 55 65 L50 65 L45 63 L42 60 L40 55 C40 55 35 48 32 42 L30 35;
                       M100 15 C100 15 88 28 78 48 L73 58 L68 63 L65 65 C65 65 61 68 58 68 L53 68 L48 66 L45 63 L43 58 C43 58 38 51 35 45 L33 38;
                       M100 15 C100 15 85 25 75 45 L70 55 L65 60 L62 62 C62 62 58 65 55 65 L50 65 L45 63 L42 60 L40 55 C40 55 35 48 32 42 L30 35" 
               dur="3s" repeatCount="indefinite"/>
    </path>
    
    <path d="M55 90 C55 90 58 75 62 60 L65 50 L68 42 L70 38 C70 38 72 32 75 28 L80 23 L85 20 L90 18 C90 18 95 16 98 15 L102 14" 
          fill="#2B2B2B" stroke="none">
      <animate attributeName="d" 
               values="M55 90 C55 90 58 75 62 60 L65 50 L68 42 L70 38 C70 38 72 32 75 28 L80 23 L85 20 L90 18 C90 18 95 16 98 15 L102 14;
                       M55 90 C55 90 60 78 64 63 L67 53 L70 45 L72 41 C72 41 74 35 77 31 L82 26 L87 23 L92 21 C92 21 97 19 100 18 L104 17;
                       M55 90 C55 90 58 75 62 60 L65 50 L68 42 L70 38 C70 38 72 32 75 28 L80 23 L85 20 L90 18 C90 18 95 16 98 15 L102 14" 
               dur="3s" repeatCount="indefinite"/>
    </path>
    
    <path d="M145 90 C145 90 138 75 132 62 L128 54 L124 47 L121 43 C121 43 117 38 113 35 L108 31 L103 28 L98 26 C98 26 93 24 90 23 L86 22" 
          fill="#1E9DD8" stroke="none">
      <animate attributeName="d" 
               values="M145 90 C145 90 138 75 132 62 L128 54 L124 47 L121 43 C121 43 117 38 113 35 L108 31 L103 28 L98 26 C98 26 93 24 90 23 L86 22;
                       M145 90 C145 90 140 78 134 65 L130 57 L126 50 L123 46 C123 46 119 41 115 38 L110 34 L105 31 L100 29 C100 29 95 27 92 26 L88 25;
                       M145 90 C145 90 138 75 132 62 L128 54 L124 47 L121 43 C121 43 117 38 113 35 L108 31 L103 28 L98 26 C98 26 93 24 90 23 L86 22" 
               dur="3s" repeatCount="indefinite"/>
    </path>
  </g>
  
  <path d="M35 42 L40 60 L30 60 Z" fill="#2B2B2B"/>
  <path d="M60 28 L68 47 L52 47 Z" fill="#2B2B2B"/>
  <path d="M85 42 L90 60 L80 60 Z" fill="#1E9DD8"/>
</svg>
